<svg xmlns="http://www.w3.org/2000/svg" viewBox="0 0 960 540" width="960" height="540" font-family="Yu Gothic, Meiryo, sans-serif">
<rect width="960" height="540" fill="#f4f5f7"/>
<rect x="0" y="0" width="130" height="95" fill="#e3e6eb" stroke="#8a8f99" stroke-width="1.5"/>
<text x="65.0" y="47.5" font-size="16" fill="#2b2f36" font-weight="bold" text-anchor="middle" dominant-baseline="middle">Menu</text>
<rect x="0" y="95.0" width="130" height="74.16666666666667" fill="#ffffff" stroke="#8a8f99" stroke-width="1.5"/>
<text x="65.0" y="124.08333333333334" font-size="12" fill="#8a8f99" font-weight="normal" text-anchor="middle" dominant-baseline="middle">1</text>
<text x="65.0" y="142.08333333333334" font-size="15" fill="#2b2f36" font-weight="normal" text-anchor="middle" dominant-baseline="middle">ヒールゼリー</text>
<rect x="0" y="169.16666666666669" width="130" height="74.16666666666667" fill="#ffffff" stroke="#8a8f99" stroke-width="1.5"/>
<text x="65.0" y="198.25000000000003" font-size="12" fill="#8a8f99" font-weight="normal" text-anchor="middle" dominant-baseline="middle">2</text>
<text x="65.0" y="216.25000000000003" font-size="15" fill="#2b2f36" font-weight="normal" text-anchor="middle" dominant-baseline="middle">ドレーン</text>
<rect x="0" y="243.33333333333334" width="130" height="74.16666666666667" fill="#ffffff" stroke="#8a8f99" stroke-width="1.5"/>
<text x="65.0" y="272.4166666666667" font-size="12" fill="#8a8f99" font-weight="normal" text-anchor="middle" dominant-baseline="middle">3</text>
<text x="65.0" y="290.4166666666667" font-size="15" fill="#2b2f36" font-weight="normal" text-anchor="middle" dominant-baseline="middle">ピンセット</text>
<rect x="0" y="317.5" width="130" height="74.16666666666667" fill="#ffffff" stroke="#8a8f99" stroke-width="1.5"/>
<text x="65.0" y="346.5833333333333" font-size="12" fill="#8a8f99" font-weight="normal" text-anchor="middle" dominant-baseline="middle">4</text>
<text x="65.0" y="364.5833333333333" font-size="15" fill="#2b2f36" font-weight="normal" text-anchor="middle" dominant-baseline="middle">メス</text>
<rect x="0" y="391.6666666666667" width="130" height="74.16666666666667" fill="#ffffff" stroke="#8a8f99" stroke-width="1.5"/>
<text x="65.0" y="420.75" font-size="12" fill="#8a8f99" font-weight="normal" text-anchor="middle" dominant-baseline="middle">5</text>
<text x="65.0" y="438.75" font-size="15" fill="#2b2f36" font-weight="normal" text-anchor="middle" dominant-baseline="middle">縫合針</text>
<rect x="0" y="465.83333333333337" width="130" height="74.16666666666667" fill="#ffffff" stroke="#8a8f99" stroke-width="1.5"/>
<text x="65.0" y="494.9166666666667" font-size="12" fill="#8a8f99" font-weight="normal" text-anchor="middle" dominant-baseline="middle">6</text>
<text x="65.0" y="512.9166666666667" font-size="15" fill="#2b2f36" font-weight="normal" text-anchor="middle" dominant-baseline="middle">注射</text>
<rect x="130" y="0" width="700" height="95" fill="#ffffff" stroke="#8a8f99" stroke-width="1.5"/>
<text x="480.0" y="33.5" font-size="16" fill="#2b2f36" font-weight="bold" text-anchor="middle" dominant-baseline="middle">バイタルゲージ</text>
<rect x="170" y="51.5" width="620" height="18" rx="9" fill="#dfe3e8"/>
<rect x="170" y="51.5" width="434.0" height="18" rx="9" fill="#3fae6a"/>
<rect x="130" y="445" width="700" height="95" fill="#ffffff" stroke="#8a8f99" stroke-width="1.5"/>
<text x="480.0" y="492.5" font-size="15" fill="#2b2f36" font-weight="normal" text-anchor="middle" dominant-baseline="middle">字幕エリア（リアルタイム会話ウィンドウ）</text>
<rect x="830" y="0" width="130" height="95" fill="#e3e6eb" stroke="#8a8f99" stroke-width="1.5"/>
<text x="895.0" y="47.5" font-size="16" fill="#2b2f36" font-weight="bold" text-anchor="middle" dominant-baseline="middle">残り時間</text>
<rect x="830" y="95" width="130" height="445" fill="#ffffff" stroke="#8a8f99" stroke-width="1.5"/>
<text x="895.0" y="317.5" font-size="15" fill="#8a8f99" font-weight="normal" text-anchor="middle" dominant-baseline="middle">空白</text>
<text x="895.0" y="339.5" font-size="12" fill="#8a8f99" font-weight="normal" text-anchor="middle" dominant-baseline="middle">（背景のみ）</text>
<rect x="130" y="95" width="700" height="350" fill="#e8f1fb" stroke="#2f6fb5" stroke-width="2.5"/>
<line x1="137" y1="95" x2="137" y2="445" stroke="#d3e3f5" stroke-width="0.4"/>
<line x1="144" y1="95" x2="144" y2="445" stroke="#d3e3f5" stroke-width="0.4"/>
<line x1="151" y1="95" x2="151" y2="445" stroke="#d3e3f5" stroke-width="0.4"/>
<line x1="158" y1="95" x2="158" y2="445" stroke="#d3e3f5" stroke-width="0.4"/>
<line x1="165" y1="95" x2="165" y2="445" stroke="#d3e3f5" stroke-width="0.4"/>
<line x1="172" y1="95" x2="172" y2="445" stroke="#d3e3f5" stroke-width="0.4"/>
<line x1="179" y1="95" x2="179" y2="445" stroke="#d3e3f5" stroke-width="0.4"/>
<line x1="186" y1="95" x2="186" y2="445" stroke="#d3e3f5" stroke-width="0.4"/>
<line x1="193" y1="95" x2="193" y2="445" stroke="#d3e3f5" stroke-width="0.4"/>
<line x1="200" y1="95" x2="200" y2="445" stroke="#9bbbe0" stroke-width="0.8"/>
<line x1="207" y1="95" x2="207" y2="445" stroke="#d3e3f5" stroke-width="0.4"/>
<line x1="214" y1="95" x2="214" y2="445" stroke="#d3e3f5" stroke-width="0.4"/>
<line x1="221" y1="95" x2="221" y2="445" stroke="#d3e3f5" stroke-width="0.4"/>
<line x1="228" y1="95" x2="228" y2="445" stroke="#d3e3f5" stroke-width="0.4"/>
<line x1="235" y1="95" x2="235" y2="445" stroke="#d3e3f5" stroke-width="0.4"/>
<line x1="242" y1="95" x2="242" y2="445" stroke="#d3e3f5" stroke-width="0.4"/>
<line x1="249" y1="95" x2="249" y2="445" stroke="#d3e3f5" stroke-width="0.4"/>
<line x1="256" y1="95" x2="256" y2="445" stroke="#d3e3f5" stroke-width="0.4"/>
<line x1="263" y1="95" x2="263" y2="445" stroke="#d3e3f5" stroke-width="0.4"/>
<line x1="270" y1="95" x2="270" y2="445" stroke="#9bbbe0" stroke-width="0.8"/>
<line x1="277" y1="95" x2="277" y2="445" stroke="#d3e3f5" stroke-width="0.4"/>
<line x1="284" y1="95" x2="284" y2="445" stroke="#d3e3f5" stroke-width="0.4"/>
<line x1="291" y1="95" x2="291" y2="445" stroke="#d3e3f5" stroke-width="0.4"/>
<line x1="298" y1="95" x2="298" y2="445" stroke="#d3e3f5" stroke-width="0.4"/>
<line x1="305" y1="95" x2="305" y2="445" stroke="#d3e3f5" stroke-width="0.4"/>
<line x1="312" y1="95" x2="312" y2="445" stroke="#d3e3f5" stroke-width="0.4"/>
<line x1="319" y1="95" x2="319" y2="445" stroke="#d3e3f5" stroke-width="0.4"/>
<line x1="326" y1="95" x2="326" y2="445" stroke="#d3e3f5" stroke-width="0.4"/>
<line x1="333" y1="95" x2="333" y2="445" stroke="#d3e3f5" stroke-width="0.4"/>
<line x1="340" y1="95" x2="340" y2="445" stroke="#9bbbe0" stroke-width="0.8"/>
<line x1="347" y1="95" x2="347" y2="445" stroke="#d3e3f5" stroke-width="0.4"/>
<line x1="354" y1="95" x2="354" y2="445" stroke="#d3e3f5" stroke-width="0.4"/>
<line x1="361" y1="95" x2="361" y2="445" stroke="#d3e3f5" stroke-width="0.4"/>
<line x1="368" y1="95" x2="368" y2="445" stroke="#d3e3f5" stroke-width="0.4"/>
<line x1="375" y1="95" x2="375" y2="445" stroke="#d3e3f5" stroke-width="0.4"/>
<line x1="382" y1="95" x2="382" y2="445" stroke="#d3e3f5" stroke-width="0.4"/>
<line x1="389" y1="95" x2="389" y2="445" stroke="#d3e3f5" stroke-width="0.4"/>
<line x1="396" y1="95" x2="396" y2="445" stroke="#d3e3f5" stroke-width="0.4"/>
<line x1="403" y1="95" x2="403" y2="445" stroke="#d3e3f5" stroke-width="0.4"/>
<line x1="410" y1="95" x2="410" y2="445" stroke="#9bbbe0" stroke-width="0.8"/>
<line x1="417" y1="95" x2="417" y2="445" stroke="#d3e3f5" stroke-width="0.4"/>
<line x1="424" y1="95" x2="424" y2="445" stroke="#d3e3f5" stroke-width="0.4"/>
<line x1="431" y1="95" x2="431" y2="445" stroke="#d3e3f5" stroke-width="0.4"/>
<line x1="438" y1="95" x2="438" y2="445" stroke="#d3e3f5" stroke-width="0.4"/>
<line x1="445" y1="95" x2="445" y2="445" stroke="#d3e3f5" stroke-width="0.4"/>
<line x1="452" y1="95" x2="452" y2="445" stroke="#d3e3f5" stroke-width="0.4"/>
<line x1="459" y1="95" x2="459" y2="445" stroke="#d3e3f5" stroke-width="0.4"/>
<line x1="466" y1="95" x2="466" y2="445" stroke="#d3e3f5" stroke-width="0.4"/>
<line x1="473" y1="95" x2="473" y2="445" stroke="#d3e3f5" stroke-width="0.4"/>
<line x1="480" y1="95" x2="480" y2="445" stroke="#9bbbe0" stroke-width="0.8"/>
<line x1="487" y1="95" x2="487" y2="445" stroke="#d3e3f5" stroke-width="0.4"/>
<line x1="494" y1="95" x2="494" y2="445" stroke="#d3e3f5" stroke-width="0.4"/>
<line x1="501" y1="95" x2="501" y2="445" stroke="#d3e3f5" stroke-width="0.4"/>
<line x1="508" y1="95" x2="508" y2="445" stroke="#d3e3f5" stroke-width="0.4"/>
<line x1="515" y1="95" x2="515" y2="445" stroke="#d3e3f5" stroke-width="0.4"/>
<line x1="522" y1="95" x2="522" y2="445" stroke="#d3e3f5" stroke-width="0.4"/>
<line x1="529" y1="95" x2="529" y2="445" stroke="#d3e3f5" stroke-width="0.4"/>
<line x1="536" y1="95" x2="536" y2="445" stroke="#d3e3f5" stroke-width="0.4"/>
<line x1="543" y1="95" x2="543" y2="445" stroke="#d3e3f5" stroke-width="0.4"/>
<line x1="550" y1="95" x2="550" y2="445" stroke="#9bbbe0" stroke-width="0.8"/>
<line x1="557" y1="95" x2="557" y2="445" stroke="#d3e3f5" stroke-width="0.4"/>
<line x1="564" y1="95" x2="564" y2="445" stroke="#d3e3f5" stroke-width="0.4"/>
<line x1="571" y1="95" x2="571" y2="445" stroke="#d3e3f5" stroke-width="0.4"/>
<line x1="578" y1="95" x2="578" y2="445" stroke="#d3e3f5" stroke-width="0.4"/>
<line x1="585" y1="95" x2="585" y2="445" stroke="#d3e3f5" stroke-width="0.4"/>
<line x1="592" y1="95" x2="592" y2="445" stroke="#d3e3f5" stroke-width="0.4"/>
<line x1="599" y1="95" x2="599" y2="445" stroke="#d3e3f5" stroke-width="0.4"/>
<line x1="606" y1="95" x2="606" y2="445" stroke="#d3e3f5" stroke-width="0.4"/>
<line x1="613" y1="95" x2="613" y2="445" stroke="#d3e3f5" stroke-width="0.4"/>
<line x1="620" y1="95" x2="620" y2="445" stroke="#9bbbe0" stroke-width="0.8"/>
<line x1="627" y1="95" x2="627" y2="445" stroke="#d3e3f5" stroke-width="0.4"/>
<line x1="634" y1="95" x2="634" y2="445" stroke="#d3e3f5" stroke-width="0.4"/>
<line x1="641" y1="95" x2="641" y2="445" stroke="#d3e3f5" stroke-width="0.4"/>
<line x1="648" y1="95" x2="648" y2="445" stroke="#d3e3f5" stroke-width="0.4"/>
<line x1="655" y1="95" x2="655" y2="445" stroke="#d3e3f5" stroke-width="0.4"/>
<line x1="662" y1="95" x2="662" y2="445" stroke="#d3e3f5" stroke-width="0.4"/>
<line x1="669" y1="95" x2="669" y2="445" stroke="#d3e3f5" stroke-width="0.4"/>
<line x1="676" y1="95" x2="676" y2="445" stroke="#d3e3f5" stroke-width="0.4"/>
<line x1="683" y1="95" x2="683" y2="445" stroke="#d3e3f5" stroke-width="0.4"/>
<line x1="690" y1="95" x2="690" y2="445" stroke="#9bbbe0" stroke-width="0.8"/>
<line x1="697" y1="95" x2="697" y2="445" stroke="#d3e3f5" stroke-width="0.4"/>
<line x1="704" y1="95" x2="704" y2="445" stroke="#d3e3f5" stroke-width="0.4"/>
<line x1="711" y1="95" x2="711" y2="445" stroke="#d3e3f5" stroke-width="0.4"/>
<line x1="718" y1="95" x2="718" y2="445" stroke="#d3e3f5" stroke-width="0.4"/>
<line x1="725" y1="95" x2="725" y2="445" stroke="#d3e3f5" stroke-width="0.4"/>
<line x1="732" y1="95" x2="732" y2="445" stroke="#d3e3f5" stroke-width="0.4"/>
<line x1="739" y1="95" x2="739" y2="445" stroke="#d3e3f5" stroke-width="0.4"/>
<line x1="746" y1="95" x2="746" y2="445" stroke="#d3e3f5" stroke-width="0.4"/>
<line x1="753" y1="95" x2="753" y2="445" stroke="#d3e3f5" stroke-width="0.4"/>
<line x1="760" y1="95" x2="760" y2="445" stroke="#9bbbe0" stroke-width="0.8"/>
<line x1="767" y1="95" x2="767" y2="445" stroke="#d3e3f5" stroke-width="0.4"/>
<line x1="774" y1="95" x2="774" y2="445" stroke="#d3e3f5" stroke-width="0.4"/>
<line x1="781" y1="95" x2="781" y2="445" stroke="#d3e3f5" stroke-width="0.4"/>
<line x1="788" y1="95" x2="788" y2="445" stroke="#d3e3f5" stroke-width="0.4"/>
<line x1="795" y1="95" x2="795" y2="445" stroke="#d3e3f5" stroke-width="0.4"/>
<line x1="802" y1="95" x2="802" y2="445" stroke="#d3e3f5" stroke-width="0.4"/>
<line x1="809" y1="95" x2="809" y2="445" stroke="#d3e3f5" stroke-width="0.4"/>
<line x1="816" y1="95" x2="816" y2="445" stroke="#d3e3f5" stroke-width="0.4"/>
<line x1="823" y1="95" x2="823" y2="445" stroke="#d3e3f5" stroke-width="0.4"/>
<line x1="130" y1="102" x2="830" y2="102" stroke="#d3e3f5" stroke-width="0.4"/>
<line x1="130" y1="109" x2="830" y2="109" stroke="#d3e3f5" stroke-width="0.4"/>
<line x1="130" y1="116" x2="830" y2="116" stroke="#d3e3f5" stroke-width="0.4"/>
<line x1="130" y1="123" x2="830" y2="123" stroke="#d3e3f5" stroke-width="0.4"/>
<line x1="130" y1="130" x2="830" y2="130" stroke="#d3e3f5" stroke-width="0.4"/>
<line x1="130" y1="137" x2="830" y2="137" stroke="#d3e3f5" stroke-width="0.4"/>
<line x1="130" y1="144" x2="830" y2="144" stroke="#d3e3f5" stroke-width="0.4"/>
<line x1="130" y1="151" x2="830" y2="151" stroke="#d3e3f5" stroke-width="0.4"/>
<line x1="130" y1="158" x2="830" y2="158" stroke="#d3e3f5" stroke-width="0.4"/>
<line x1="130" y1="165" x2="830" y2="165" stroke="#9bbbe0" stroke-width="0.8"/>
<line x1="130" y1="172" x2="830" y2="172" stroke="#d3e3f5" stroke-width="0.4"/>
<line x1="130" y1="179" x2="830" y2="179" stroke="#d3e3f5" stroke-width="0.4"/>
<line x1="130" y1="186" x2="830" y2="186" stroke="#d3e3f5" stroke-width="0.4"/>
<line x1="130" y1="193" x2="830" y2="193" stroke="#d3e3f5" stroke-width="0.4"/>
<line x1="130" y1="200" x2="830" y2="200" stroke="#d3e3f5" stroke-width="0.4"/>
<line x1="130" y1="207" x2="830" y2="207" stroke="#d3e3f5" stroke-width="0.4"/>
<line x1="130" y1="214" x2="830" y2="214" stroke="#d3e3f5" stroke-width="0.4"/>
<line x1="130" y1="221" x2="830" y2="221" stroke="#d3e3f5" stroke-width="0.4"/>
<line x1="130" y1="228" x2="830" y2="228" stroke="#d3e3f5" stroke-width="0.4"/>
<line x1="130" y1="235" x2="830" y2="235" stroke="#9bbbe0" stroke-width="0.8"/>
<line x1="130" y1="242" x2="830" y2="242" stroke="#d3e3f5" stroke-width="0.4"/>
<line x1="130" y1="249" x2="830" y2="249" stroke="#d3e3f5" stroke-width="0.4"/>
<line x1="130" y1="256" x2="830" y2="256" stroke="#d3e3f5" stroke-width="0.4"/>
<line x1="130" y1="263" x2="830" y2="263" stroke="#d3e3f5" stroke-width="0.4"/>
<line x1="130" y1="270" x2="830" y2="270" stroke="#d3e3f5" stroke-width="0.4"/>
<line x1="130" y1="277" x2="830" y2="277" stroke="#d3e3f5" stroke-width="0.4"/>
<line x1="130" y1="284" x2="830" y2="284" stroke="#d3e3f5" stroke-width="0.4"/>
<line x1="130" y1="291" x2="830" y2="291" stroke="#d3e3f5" stroke-width="0.4"/>
<line x1="130" y1="298" x2="830" y2="298" stroke="#d3e3f5" stroke-width="0.4"/>
<line x1="130" y1="305" x2="830" y2="305" stroke="#9bbbe0" stroke-width="0.8"/>
<line x1="130" y1="312" x2="830" y2="312" stroke="#d3e3f5" stroke-width="0.4"/>
<line x1="130" y1="319" x2="830" y2="319" stroke="#d3e3f5" stroke-width="0.4"/>
<line x1="130" y1="326" x2="830" y2="326" stroke="#d3e3f5" stroke-width="0.4"/>
<line x1="130" y1="333" x2="830" y2="333" stroke="#d3e3f5" stroke-width="0.4"/>
<line x1="130" y1="340" x2="830" y2="340" stroke="#d3e3f5" stroke-width="0.4"/>
<line x1="130" y1="347" x2="830" y2="347" stroke="#d3e3f5" stroke-width="0.4"/>
<line x1="130" y1="354" x2="830" y2="354" stroke="#d3e3f5" stroke-width="0.4"/>
<line x1="130" y1="361" x2="830" y2="361" stroke="#d3e3f5" stroke-width="0.4"/>
<line x1="130" y1="368" x2="830" y2="368" stroke="#d3e3f5" stroke-width="0.4"/>
<line x1="130" y1="375" x2="830" y2="375" stroke="#9bbbe0" stroke-width="0.8"/>
<line x1="130" y1="382" x2="830" y2="382" stroke="#d3e3f5" stroke-width="0.4"/>
<line x1="130" y1="389" x2="830" y2="389" stroke="#d3e3f5" stroke-width="0.4"/>
<line x1="130" y1="396" x2="830" y2="396" stroke="#d3e3f5" stroke-width="0.4"/>
<line x1="130" y1="403" x2="830" y2="403" stroke="#d3e3f5" stroke-width="0.4"/>
<line x1="130" y1="410" x2="830" y2="410" stroke="#d3e3f5" stroke-width="0.4"/>
<line x1="130" y1="417" x2="830" y2="417" stroke="#d3e3f5" stroke-width="0.4"/>
<line x1="130" y1="424" x2="830" y2="424" stroke="#d3e3f5" stroke-width="0.4"/>
<line x1="130" y1="431" x2="830" y2="431" stroke="#d3e3f5" stroke-width="0.4"/>
<line x1="130" y1="438" x2="830" y2="438" stroke="#d3e3f5" stroke-width="0.4"/>
<rect x="130" y="95" width="700" height="350" fill="none" stroke="#2f6fb5" stroke-width="2.5"/>
<rect x="330.0" y="232.0" width="300" height="76" rx="8" fill="#ffffff" fill-opacity="0.85"/>
<text x="480.0" y="254.0" font-size="20" fill="#1f4f86" font-weight="bold" text-anchor="middle" dominant-baseline="middle">手術エリア（横2：縦1）</text>
<text x="480.0" y="284.0" font-size="14" fill="#1f4f86" font-weight="normal" text-anchor="middle" dominant-baseline="middle">横100 × 縦50 マス（正方形）</text>
<text x="136" y="105" font-size="10" fill="#2f6fb5" font-weight="normal" text-anchor="start" dominant-baseline="middle">(0,0)</text>
<text x="824" y="435" font-size="10" fill="#2f6fb5" font-weight="normal" text-anchor="end" dominant-baseline="middle">(99,49)</text>
</svg>